PathFileType        4      (X/Y/Z)      C:\Users\aurel\Documents\opensim-MSc\data\transformed_83_35.trc
DataRate	CameraRate	NumFrames	NumMarkers	Units	OrigDataRate	OrigDataStartFrame	OrigNumFrames
120.0	120.0	5	41	mm	120.0	525	1048
Frame#	Time	LFWT			RFWT			LBWT			RBWT			LTHI			LKNE			LSHN			LANK			LHEE			LMT5			LTOE			RTHI			RKNE			RSHN			RANK			RHEE			RMT5			RTOE			CLAV			STRN			C7			T10			RBAC			LFHD			RFHD			LBHD			RBHD			LSHO			LUPA			LELB			LFRM			LWRA			LWRB			LFIN			RSHO			RUPA			RELB			RFRM			RWRA			RWRB			RFIN
		X1	Y1	Z1	X2	Y2	Z2	X3	Y3	Z3	X4	Y4	Z4	X5	Y5	Z5	X6	Y6	Z6	X7	Y7	Z7	X8	Y8	Z8	X9	Y9	Z9	X10	Y10	Z10	X11	Y11	Z11	X12	Y12	Z12	X13	Y13	Z13	X14	Y14	Z14	X15	Y15	Z15	X16	Y16	Z16	X17	Y17	Z17	X18	Y18	Z18	X19	Y19	Z19	X20	Y20	Z20	X21	Y21	Z21	X22	Y22	Z22	X23	Y23	Z23	X24	Y24	Z24	X25	Y25	Z25	X26	Y26	Z26	X27	Y27	Z27	X28	Y28	Z28	X29	Y29	Z29	X30	Y30	Z30	X31	Y31	Z31	X32	Y32	Z32	X33	Y33	Z33	X34	Y34	Z34	X35	Y35	Z35	X36	Y36	Z36	X37	Y37	Z37	X38	Y38	Z38	X39	Y39	Z39	X40	Y40	Z40	X41	Y41	Z41
525	4.367	-130.48679999999987	912.29193	444.42296999999996	-130.9746999999999	884.5234400000002	707.5835	-296.55892999999986	957.1105300000002	484.54369999999994	-294.8306599999999	956.5830700000001	623.8628499999999	20.677350000000093	748.07928	391.67965999999996	140.37527000000009	654.63403	427.02495999999996	55.70567000000005	420.81122	408.15366	-2.1584899999999636	298.17889	430.26202	-53.89900999999996	285.73026000000004	486.07632	79.52704000000003	251.20102000000003	393.84656	131.81938000000002	266.73337	468.40918	-193.7252699999999	664.6820700000001	722.60449	-176.89426999999995	441.16830000000004	680.34253	-214.13152999999997	328.31009000000006	697.88837	-244.75081	60.08028000000007	625.98206	-310.65521	20.608060000000073	575.76831	-142.08307	30.530660000000058	660.94995	-103.21212	53.32349000000005	585.11188	-90.03076999999985	1296.22913	554.9173599999999	-105.05516999999986	1118.63892	553.1800499999999	-196.85158999999982	1402.68494	555.3072499999998	-308.7292499999998	1201.32947	559.0519999999999	-286.76021999999983	1287.65747	638.5180099999999	55.27228000000018	1477.30066	484.3034099999999	38.510270000000176	1475.83044	644.3953899999999	-95.55037999999982	1510.93848	501.30248999999986	-105.94671999999981	1512.66992	610.4002099999999	-160.26114999999982	1384.39832	414.79357999999996	-242.34269999999987	1184.01746	324.26500999999996	-278.67818999999986	1091.67712	314.09905999999995	-284.8298299999999	923.40326	293.09972999999997	-162.26806999999988	824.25409	315.15890999999993	-290.99883999999986	820.5755	245.47007999999994	-206.4308499999999	759.97296	268.30575999999996	-161.34026999999983	1370.83752	708.0951499999999	-199.52251999999984	1258.09277	782.4410999999999	-261.4831199999999	1065.66162	792.6628999999999	-262.0931999999999	989.2084400000001	785.9028899999998	-63.7007999999999	841.0969800000001	815.36676	-195.04209999999992	795.6411100000001	856.51764	-155.1383199999999	766.5753200000001	846.46899
526	4.375	-126.49119999999989	912.90912	444.21004999999997	-127.69523999999988	883.9954200000001	707.78937	-293.1449599999999	957.1912800000001	484.4932299999999	-291.7279399999999	956.6607100000001	623.6876199999999	24.21736000000009	749.01886	391.9000899999999	144.1940500000001	655.83533	426.94359999999995	66.34386000000006	419.61084	407.78882	12.070210000000035	295.39566	430.09222	-39.247199999999964	281.9739400000001	485.93332	94.49277000000002	249.86943	393.70819	146.98051000000004	267.49124	469.07333	-190.93364999999991	664.6138900000001	722.47217	-174.40992999999995	440.8583100000001	680.39496	-212.90741999999997	328.04251000000005	697.92493	-244.56821	60.05870000000007	625.97223	-310.67825	20.587070000000075	575.78168	-141.95253	30.485260000000057	661.07385	-102.93576	53.02824000000005	585.19098	-86.64000999999985	1296.0127	554.3791499999999	-101.60734999999985	1118.41565	553.2090499999999	-193.25530999999984	1402.57629	555.3102399999999	-305.2614699999998	1201.44055	559.3746299999999	-283.0506599999998	1287.59705	638.7470099999999	59.032160000000175	1476.38379	483.6103799999999	42.196000000000176	1475.37073	643.6057699999999	-91.57499999999982	1510.57825	500.7539099999999	-101.69288999999982	1512.53748	609.9745499999999	-156.85441999999983	1384.10156	414.53249999999997	-239.91155999999987	1183.99927	324.26784999999995	-275.7263799999999	1091.36572	313.93145999999996	-282.4479699999999	923.09076	293.46261999999996	-160.62020999999987	823.94678	314.74904999999995	-289.2312899999999	820.58948	245.60842999999994	-204.6631899999999	759.75171	268.11339999999996	-157.09537999999984	1370.83765	708.1146899999999	-195.32583999999986	1258.20898	782.5709199999999	-256.3685599999999	1065.49048	792.9417699999999	-256.7420699999999	988.8514400000001	786.1794999999998	-58.6975399999999	841.0490100000001	813.65173	-188.7795999999999	795.6365400000001	855.74811	-149.12681999999992	766.2841800000001	845.69647
527	4.383	-122.15981999999988	913.44568	444.2542399999999	-124.05086999999989	883.6879900000001	707.8454	-289.77080999999987	957.3930100000001	484.4525499999999	-288.4743299999999	956.5665900000001	623.6574099999999	27.35908000000009	749.75281	391.90358999999995	148.0052000000001	656.83282	426.85891999999996	76.82841000000006	418.2941	407.65927	26.075520000000036	292.8974	430.06067	-25.270909999999965	278.2272300000001	485.79016	110.34007000000003	248.91029	394.10281	161.44954000000004	267.93445	470.02634	-187.97584999999992	664.3906300000001	722.26849	-172.19227999999995	440.6515800000001	680.47925	-211.57116999999997	327.90045000000003	697.84619	-244.42542	60.01090000000007	625.99658	-310.6503	20.777790000000074	575.70233	-141.97763	30.363900000000058	661.16449	-102.75475	52.880250000000046	585.20319	-82.50332999999985	1295.74524	554.2830199999999	-98.42662999999986	1118.05469	553.1096799999999	-189.56017999999983	1402.61096	555.3155499999999	-301.65828999999985	1201.48193	559.9249899999999	-279.43758999999983	1287.72266	639.0150799999999	62.55999000000018	1476.08386	482.82558999999986	46.106410000000174	1475.13354	643.0633499999999	-88.22428999999981	1510.43555	500.0092499999999	-97.51040999999981	1512.28369	609.7907699999998	-153.30289999999982	1383.86792	414.3065199999999	-236.90131999999986	1183.82996	324.28576999999996	-272.7725199999999	1091.12366	313.92235999999997	-279.9467799999999	923.03107	293.73403999999994	-158.6066599999999	823.43561	314.84337999999997	-287.30077999999986	820.47205	245.52114999999995	-202.57335999999992	759.53021	268.03963999999996	-152.91277999999983	1370.71973	707.9747899999999	-190.84672999999987	1258.27063	782.6710199999999	-251.67144999999985	1065.24719	793.2800899999999	-251.8425099999999	988.6262200000001	786.5105599999999	-53.1522699999999	841.13446	811.81512	-182.45801999999992	795.5546900000002	854.63159	-147.51684999999992	765.9141200000001	843.81104
528	4.392	-118.39088999999989	913.55157	444.67211999999995	-120.39255999999989	883.5292400000001	707.92749	-285.9217799999999	957.3638300000001	484.42290999999994	-284.7010199999999	956.3864700000001	623.8214099999999	30.40037000000009	750.09265	391.73058999999995	152.0590500000001	657.54498	426.6460599999999	86.74868000000005	416.81866	407.73764	39.627390000000034	290.04843	430.41519	-11.978729999999967	274.54642000000007	485.47318	125.35830000000003	247.79332	394.87039	175.45448000000002	268.12436	471.22363	-184.94315999999992	664.1279300000001	722.112	-170.57274999999996	440.3493000000001	680.52972	-209.99941999999996	327.80124000000006	697.70032	-244.41074	59.97012000000007	625.99414	-310.57681	20.946480000000076	575.61829	-142.04309	30.179960000000058	661.20422	-102.6554	52.90567000000005	585.18616	-78.67169999999984	1295.4198	554.2549399999999	-94.77996999999986	1117.87842	553.2386499999999	-185.69848999999982	1402.60193	555.3751799999999	-298.06829999999985	1201.45837	560.4025899999999	-275.46569999999986	1287.81616	639.0821499999998	66.12156000000019	1475.90613	481.6515499999999	50.75249000000018	1474.95667	642.1242699999999	-84.70657999999982	1510.20728	499.5039999999999	-93.44784999999982	1512.10413	609.3948399999999	-149.85029999999983	1383.53662	414.3234299999999	-233.69271999999987	1183.58691	324.38372999999996	-269.9968899999999	1090.9585	314.15655999999996	-277.27150999999986	923.02008	293.55227999999994	-156.23661999999987	822.93945	314.61690999999996	-285.2712699999999	820.43915	245.46163999999993	-200.56968999999992	759.11841	267.67107999999996	-148.61922999999982	1370.59521	707.7694699999998	-186.45170999999985	1258.17102	782.5878299999999	-247.02694999999986	1064.854	793.6422099999999	-247.04276999999988	988.3065800000002	786.7458499999999	-47.55608999999989	841.39514	810.17365	-176.31788999999992	795.4382300000001	853.50018	-142.51479999999992	765.7736800000001	842.32166
529	4.4	-115.16906999999989	913.39319	445.00579999999997	-117.16237999999989	883.1292700000001	708.10083	-282.2453899999999	957.2603100000001	484.31301999999994	-281.0019799999999	956.1275000000002	623.8522299999998	33.929740000000095	750.16229	391.64162999999996	156.0567900000001	657.59192	426.58916999999997	96.35970000000006	415.30292	407.74289	52.55275000000004	287.25824	430.79672	1.643000000000033	270.87604000000005	485.35992	139.17827000000003	246.21033	395.79129	188.91060000000002	268.24313	472.27008	-181.8145399999999	663.5867300000001	722.09155	-168.89705999999995	439.76520000000005	680.45709	-208.24936999999997	327.67767000000003	697.55518	-244.31439	60.01310000000007	626.01422	-310.319	20.838780000000074	575.68835	-142.01001	30.080730000000056	661.19635	-102.70165	52.89612000000005	585.28229	-75.27739999999984	1295.0979	553.8511999999998	-91.30278999999986	1117.60864	553.3084699999999	-181.88471999999982	1402.33728	554.9346299999999	-294.5545999999998	1201.43176	560.5599399999999	-271.52279999999985	1287.78137	638.9595299999999	69.66030000000019	1474.92566	480.8315399999999	53.91140000000018	1474.14075	640.9713099999999	-80.69293999999981	1509.97437	499.0799899999999	-89.34833999999981	1511.87915	608.8605299999999	-146.39924999999982	1383.13269	414.38195999999994	-230.62415999999985	1183.41736	324.50841999999994	-267.26720999999986	1090.71997	314.28756999999996	-274.6105699999999	922.73883	293.22033999999996	-153.60251999999988	822.42303	314.0686299999999	-283.05446999999987	820.33661	245.50112999999993	-198.50805999999992	758.92975	267.22790999999995	-144.61532999999983	1370.62207	707.5436999999998	-181.87249999999986	1258.03601	782.6200599999999	-242.43622999999985	1064.35181	793.9373799999998	-241.9106799999999	988.0252700000001	786.6838399999999	-42.02036999999989	841.69299	808.36279	-170.53286999999992	795.3153700000001	852.48914	-135.61973999999992	765.8211700000002	841.28314
